<?xml version="1.0" encoding="UTF-8" standalone="no"?>
<!DOCTYPE svg PUBLIC "-//W3C//DTD SVG 1.1//EN"
 "http://www.w3.org/Graphics/SVG/1.1/DTD/svg11.dtd">
<!-- Generated by graphviz version 2.47.3 (20210619.1520)
 -->
<!-- Title: dependencies Pages: 1 -->
<svg width="338pt" height="174pt"
 viewBox="0.00 0.00 338.00 173.80" xmlns="http://www.w3.org/2000/svg" xmlns:xlink="http://www.w3.org/1999/xlink">
<g id="graph0" class="graph" transform="scale(1 1) rotate(0) translate(4 169.8)">
<title>dependencies</title>
<polygon fill="white" stroke="transparent" points="-4,4 -4,-169.8 334,-169.8 334,4 -4,4"/>
<text text-anchor="middle" x="165" y="-8.2" font-family="sans-serif" font-size="14.00">dependencies</text>
<g id="clust1" class="cluster">
<title>cluster_OrderModule</title>
<polygon fill="none" stroke="black" stroke-dasharray="1,5" points="8,-32.8 8,-157.8 322,-157.8 322,-32.8 8,-32.8"/>
</g>
<g id="clust3" class="cluster">
<title>cluster_OrderModule_imports</title>
<polygon fill="none" stroke="black" points="166,-40.8 166,-92.8 314,-92.8 314,-40.8 166,-40.8"/>
</g>
<g id="clust6" class="cluster">
<title>cluster_OrderModule_providers</title>
<polygon fill="none" stroke="black" points="16,-40.8 16,-92.8 158,-92.8 158,-40.8 16,-40.8"/>
</g>
<!-- InventoryRepository -->
<g id="node1" class="node">
<title>InventoryRepository</title>
<polygon fill="#8dd3c7" stroke="black" points="305.86,-84.8 302.86,-88.8 281.86,-88.8 278.86,-84.8 174.14,-84.8 174.14,-48.8 305.86,-48.8 305.86,-84.8"/>
<text text-anchor="middle" x="240" y="-62.6" font-family="Times,serif" font-size="14.00">InventoryRepository</text>
</g>
<!-- OrderModule -->
<g id="node2" class="node">
<title>OrderModule</title>
<polygon fill="#8dd3c7" stroke="black" points="209.19,-149.8 206.19,-153.8 185.19,-153.8 182.19,-149.8 116.81,-149.8 116.81,-113.8 209.19,-113.8 209.19,-149.8"/>
<text text-anchor="middle" x="163" y="-127.6" font-family="Times,serif" font-size="14.00">OrderModule</text>
</g>
<!-- InventoryRepository&#45;&gt;OrderModule -->
<g id="edge1" class="edge">
<title>InventoryRepository&#45;&gt;OrderModule</title>
<path fill="none" stroke="black" d="M191.58,-84.91C191.58,-84.91 191.58,-103.79 191.58,-103.79"/>
<polygon fill="black" stroke="black" points="188.08,-103.79 191.58,-113.79 195.08,-103.79 188.08,-103.79"/>
</g>
<!-- OrderService -->
<g id="node3" class="node">
<title>OrderService</title>
<ellipse fill="#fdb462" stroke="black" cx="87" cy="-66.8" rx="62.52" ry="18"/>
<text text-anchor="middle" x="87" y="-62.6" font-family="Times,serif" font-size="14.00">OrderService</text>
</g>
<!-- OrderService&#45;&gt;OrderModule -->
<g id="edge2" class="edge">
<title>OrderService&#45;&gt;OrderModule</title>
<path fill="none" stroke="black" d="M133.21,-79.03C133.21,-79.03 133.21,-103.48 133.21,-103.48"/>
<polygon fill="black" stroke="black" points="129.71,-103.48 133.21,-113.48 136.71,-103.48 129.71,-103.48"/>
</g>
</g>
</svg>
