<?xml version="1.0" encoding="UTF-8" standalone="no"?>
<!DOCTYPE svg PUBLIC "-//W3C//DTD SVG 1.1//EN"
 "http://www.w3.org/Graphics/SVG/1.1/DTD/svg11.dtd">
<!-- Generated by graphviz version 2.47.3 (20210619.1520)
 -->
<!-- Title: dependencies Pages: 1 -->
<svg width="645pt" height="174pt"
 viewBox="0.00 0.00 645.00 173.80" xmlns="http://www.w3.org/2000/svg" xmlns:xlink="http://www.w3.org/1999/xlink">
<g id="graph0" class="graph" transform="scale(1 1) rotate(0) translate(4 169.8)">
<title>dependencies</title>
<polygon fill="white" stroke="transparent" points="-4,4 -4,-169.8 641,-169.8 641,4 -4,4"/>
<text text-anchor="middle" x="318.5" y="-8.2" font-family="sans-serif" font-size="14.00">dependencies</text>
<g id="clust1" class="cluster">
<title>cluster_AuthModule</title>
<polygon fill="none" stroke="black" stroke-dasharray="1,5" points="8,-32.8 8,-157.8 629,-157.8 629,-32.8 8,-32.8"/>
</g>
<g id="clust3" class="cluster">
<title>cluster_AuthModule_imports</title>
<polygon fill="none" stroke="black" points="481,-40.8 481,-92.8 621,-92.8 621,-40.8 481,-40.8"/>
</g>
<g id="clust6" class="cluster">
<title>cluster_AuthModule_providers</title>
<polygon fill="none" stroke="black" points="16,-40.8 16,-92.8 473,-92.8 473,-40.8 16,-40.8"/>
</g>
<!-- UsersService -->
<g id="node1" class="node">
<title>UsersService</title>
<ellipse fill="#8dd3c7" stroke="black" cx="551" cy="-66.8" rx="61.95" ry="18"/>
<text text-anchor="middle" x="551" y="-62.6" font-family="Times,serif" font-size="14.00">UsersService</text>
</g>
<!-- AuthModule -->
<g id="node2" class="node">
<title>AuthModule</title>
<polygon fill="#8dd3c7" stroke="black" points="449.55,-149.8 446.55,-153.8 425.55,-153.8 422.55,-149.8 362.45,-149.8 362.45,-113.8 449.55,-113.8 449.55,-149.8"/>
<text text-anchor="middle" x="406" y="-127.6" font-family="Times,serif" font-size="14.00">AuthModule</text>
</g>
<!-- UsersService&#45;&gt;AuthModule -->
<g id="edge1" class="edge">
<title>UsersService&#45;&gt;AuthModule</title>
<path fill="none" stroke="black" d="M571.66,-83.99C571.66,-105 571.66,-137.8 571.66,-137.8 571.66,-137.8 459.96,-137.8 459.96,-137.8"/>
<polygon fill="black" stroke="black" points="459.96,-134.3 449.96,-137.8 459.96,-141.3 459.96,-134.3"/>
</g>
<!-- UsersService&#45;&gt;AuthModule -->
<g id="edge5" class="edge">
<title>UsersService&#45;&gt;AuthModule</title>
<path fill="none" stroke="black" d="M530.34,-83.87C530.34,-101.29 530.34,-125.8 530.34,-125.8 530.34,-125.8 459.84,-125.8 459.84,-125.8"/>
<polygon fill="black" stroke="black" points="459.84,-122.3 449.84,-125.8 459.84,-129.3 459.84,-122.3"/>
</g>
<!-- AuthService -->
<g id="node3" class="node">
<title>AuthService</title>
<ellipse fill="#fdb462" stroke="black" cx="406" cy="-66.8" rx="59.11" ry="18"/>
<text text-anchor="middle" x="406" y="-62.6" font-family="Times,serif" font-size="14.00">AuthService</text>
</g>
<!-- AuthService&#45;&gt;AuthModule -->
<g id="edge2" class="edge">
<title>AuthService&#45;&gt;AuthModule</title>
<path fill="none" stroke="black" d="M406,-84.91C406,-84.91 406,-103.79 406,-103.79"/>
<polygon fill="black" stroke="black" points="402.5,-103.79 406,-113.79 409.5,-103.79 402.5,-103.79"/>
</g>
<!-- LocalStrategy -->
<g id="node4" class="node">
<title>LocalStrategy</title>
<ellipse fill="#fdb462" stroke="black" cx="263" cy="-66.8" rx="65.41" ry="18"/>
<text text-anchor="middle" x="263" y="-62.6" font-family="Times,serif" font-size="14.00">LocalStrategy</text>
</g>
<!-- LocalStrategy&#45;&gt;AuthModule -->
<g id="edge3" class="edge">
<title>LocalStrategy&#45;&gt;AuthModule</title>
<path fill="none" stroke="black" d="M263,-84.82C263,-102.17 263,-125.8 263,-125.8 263,-125.8 352.32,-125.8 352.32,-125.8"/>
<polygon fill="black" stroke="black" points="352.32,-129.3 362.32,-125.8 352.32,-122.3 352.32,-129.3"/>
</g>
<!-- SessionSerializer -->
<g id="node5" class="node">
<title>SessionSerializer</title>
<ellipse fill="#fdb462" stroke="black" cx="102" cy="-66.8" rx="77.58" ry="18"/>
<text text-anchor="middle" x="102" y="-62.6" font-family="Times,serif" font-size="14.00">SessionSerializer</text>
</g>
<!-- SessionSerializer&#45;&gt;AuthModule -->
<g id="edge4" class="edge">
<title>SessionSerializer&#45;&gt;AuthModule</title>
<path fill="none" stroke="black" d="M102,-85.08C102,-106.12 102,-137.8 102,-137.8 102,-137.8 352.44,-137.8 352.44,-137.8"/>
<polygon fill="black" stroke="black" points="352.44,-141.3 362.44,-137.8 352.44,-134.3 352.44,-141.3"/>
</g>
</g>
</svg>
