<?xml version="1.0" encoding="UTF-8" standalone="no"?>
<!DOCTYPE svg PUBLIC "-//W3C//DTD SVG 1.1//EN"
 "http://www.w3.org/Graphics/SVG/1.1/DTD/svg11.dtd">
<!-- Generated by graphviz version 2.47.3 (20210619.1520)
 -->
<!-- Title: dependencies Pages: 1 -->
<svg width="862pt" height="174pt"
 viewBox="0.00 0.00 862.00 173.80" xmlns="http://www.w3.org/2000/svg" xmlns:xlink="http://www.w3.org/1999/xlink">
<g id="graph0" class="graph" transform="scale(1 1) rotate(0) translate(4 169.8)">
<title>dependencies</title>
<polygon fill="white" stroke="transparent" points="-4,4 -4,-169.8 858,-169.8 858,4 -4,4"/>
<text text-anchor="middle" x="427" y="-8.2" font-family="sans-serif" font-size="14.00">dependencies</text>
<g id="clust1" class="cluster">
<title>cluster_AppModule</title>
<polygon fill="none" stroke="black" stroke-dasharray="1,5" points="8,-32.8 8,-157.8 846,-157.8 846,-32.8 8,-32.8"/>
</g>
<g id="clust3" class="cluster">
<title>cluster_AppModule_imports</title>
<polygon fill="none" stroke="black" points="154,-40.8 154,-92.8 838,-92.8 838,-40.8 154,-40.8"/>
</g>
<g id="clust6" class="cluster">
<title>cluster_AppModule_providers</title>
<polygon fill="none" stroke="black" points="16,-40.8 16,-92.8 146,-92.8 146,-40.8 16,-40.8"/>
</g>
<!-- AuthModule -->
<g id="node1" class="node">
<title>AuthModule</title>
<polygon fill="#8dd3c7" stroke="black" points="829.55,-84.8 826.55,-88.8 805.55,-88.8 802.55,-84.8 742.45,-84.8 742.45,-48.8 829.55,-48.8 829.55,-84.8"/>
<text text-anchor="middle" x="786" y="-62.6" font-family="Times,serif" font-size="14.00">AuthModule</text>
</g>
<!-- AppModule -->
<g id="node7" class="node">
<title>AppModule</title>
<polygon fill="#8dd3c7" stroke="black" points="480.66,-149.8 477.66,-153.8 456.66,-153.8 453.66,-149.8 397.34,-149.8 397.34,-113.8 480.66,-113.8 480.66,-149.8"/>
<text text-anchor="middle" x="439" y="-127.6" font-family="Times,serif" font-size="14.00">AppModule</text>
</g>
<!-- AuthModule&#45;&gt;AppModule -->
<g id="edge1" class="edge">
<title>AuthModule&#45;&gt;AppModule</title>
<path fill="none" stroke="black" d="M786,-85.09C786,-107.01 786,-140.8 786,-140.8 786,-140.8 490.86,-140.8 490.86,-140.8"/>
<polygon fill="black" stroke="black" points="490.86,-137.3 480.86,-140.8 490.86,-144.3 490.86,-137.3"/>
</g>
<!-- DishModule -->
<g id="node2" class="node">
<title>DishModule</title>
<polygon fill="#8dd3c7" stroke="black" points="723.99,-84.8 720.99,-88.8 699.99,-88.8 696.99,-84.8 638.01,-84.8 638.01,-48.8 723.99,-48.8 723.99,-84.8"/>
<text text-anchor="middle" x="681" y="-62.6" font-family="Times,serif" font-size="14.00">DishModule</text>
</g>
<!-- DishModule&#45;&gt;AppModule -->
<g id="edge2" class="edge">
<title>DishModule&#45;&gt;AppModule</title>
<path fill="none" stroke="black" d="M681,-84.91C681,-104.14 681,-131.8 681,-131.8 681,-131.8 490.88,-131.8 490.88,-131.8"/>
<polygon fill="black" stroke="black" points="490.88,-128.3 480.88,-131.8 490.88,-135.3 490.88,-128.3"/>
</g>
<!-- ExpenseModule -->
<g id="node3" class="node">
<title>ExpenseModule</title>
<polygon fill="#8dd3c7" stroke="black" points="620.48,-84.8 617.48,-88.8 596.48,-88.8 593.48,-84.8 513.52,-84.8 513.52,-48.8 620.48,-48.8 620.48,-84.8"/>
<text text-anchor="middle" x="567" y="-62.6" font-family="Times,serif" font-size="14.00">ExpenseModule</text>
</g>
<!-- ExpenseModule&#45;&gt;AppModule -->
<g id="edge3" class="edge">
<title>ExpenseModule&#45;&gt;AppModule</title>
<path fill="none" stroke="black" d="M567,-84.83C567,-101.2 567,-122.8 567,-122.8 567,-122.8 490.91,-122.8 490.91,-122.8"/>
<polygon fill="black" stroke="black" points="490.91,-119.3 480.91,-122.8 490.91,-126.3 490.91,-119.3"/>
</g>
<!-- InventoryModule -->
<g id="node4" class="node">
<title>InventoryModule</title>
<polygon fill="#8dd3c7" stroke="black" points="495.98,-84.8 492.98,-88.8 471.98,-88.8 468.98,-84.8 382.02,-84.8 382.02,-48.8 495.98,-48.8 495.98,-84.8"/>
<text text-anchor="middle" x="439" y="-62.6" font-family="Times,serif" font-size="14.00">InventoryModule</text>
</g>
<!-- InventoryModule&#45;&gt;AppModule -->
<g id="edge4" class="edge">
<title>InventoryModule&#45;&gt;AppModule</title>
<path fill="none" stroke="black" d="M439,-84.91C439,-84.91 439,-103.79 439,-103.79"/>
<polygon fill="black" stroke="black" points="435.5,-103.79 439,-113.79 442.5,-103.79 435.5,-103.79"/>
</g>
<!-- OrderModule -->
<g id="node5" class="node">
<title>OrderModule</title>
<polygon fill="#8dd3c7" stroke="black" points="364.19,-84.8 361.19,-88.8 340.19,-88.8 337.19,-84.8 271.81,-84.8 271.81,-48.8 364.19,-48.8 364.19,-84.8"/>
<text text-anchor="middle" x="318" y="-62.6" font-family="Times,serif" font-size="14.00">OrderModule</text>
</g>
<!-- OrderModule&#45;&gt;AppModule -->
<g id="edge5" class="edge">
<title>OrderModule&#45;&gt;AppModule</title>
<path fill="none" stroke="black" d="M318,-84.83C318,-101.2 318,-122.8 318,-122.8 318,-122.8 387.02,-122.8 387.02,-122.8"/>
<polygon fill="black" stroke="black" points="387.02,-126.3 397.02,-122.8 387.02,-119.3 387.02,-126.3"/>
</g>
<!-- UsersModule -->
<g id="node6" class="node">
<title>UsersModule</title>
<polygon fill="#8dd3c7" stroke="black" points="253.92,-84.8 250.92,-88.8 229.92,-88.8 226.92,-84.8 162.08,-84.8 162.08,-48.8 253.92,-48.8 253.92,-84.8"/>
<text text-anchor="middle" x="208" y="-62.6" font-family="Times,serif" font-size="14.00">UsersModule</text>
</g>
<!-- UsersModule&#45;&gt;AppModule -->
<g id="edge6" class="edge">
<title>UsersModule&#45;&gt;AppModule</title>
<path fill="none" stroke="black" d="M208,-84.91C208,-104.14 208,-131.8 208,-131.8 208,-131.8 387.17,-131.8 387.17,-131.8"/>
<polygon fill="black" stroke="black" points="387.17,-135.3 397.17,-131.8 387.17,-128.3 387.17,-135.3"/>
</g>
<!-- AppService -->
<g id="node8" class="node">
<title>AppService</title>
<ellipse fill="#fdb462" stroke="black" cx="81" cy="-66.8" rx="56.74" ry="18"/>
<text text-anchor="middle" x="81" y="-62.6" font-family="Times,serif" font-size="14.00">AppService</text>
</g>
<!-- AppService&#45;&gt;AppModule -->
<g id="edge7" class="edge">
<title>AppService&#45;&gt;AppModule</title>
<path fill="none" stroke="black" d="M81,-85.09C81,-107.01 81,-140.8 81,-140.8 81,-140.8 387.23,-140.8 387.23,-140.8"/>
<polygon fill="black" stroke="black" points="387.23,-144.3 397.23,-140.8 387.23,-137.3 387.23,-144.3"/>
</g>
</g>
</svg>
